<svg width="231" height="137" viewBox="0 0 231 137" fill="none" shadow xmlns="http://www.w3.org/2000/svg">
<path d="M187.877 29.1363L187.568 30.2198C187.401 30.8012 187.246 31.3826 187.079 31.9508C186.911 32.519 186.693 33.2722 186.512 33.9064C186.332 34.5407 186.139 35.1221 185.959 35.7299L185.65 36.7342C199.786 34.0914 213.709 31.7746 227.416 29.7838C214.261 28.7547 201.058 28.5385 187.877 29.1363ZM54.4271 61.3117L53.8606 60.1621C36.3262 67.6827 19.4354 76.6951 3.36461 87.1049C19.3211 81.1764 35.8012 75.5077 52.8048 70.0989C53.7833 68.0375 54.749 65.963 55.7403 63.9016L54.7618 61.9988C54.646 61.7742 54.543 61.5364 54.4271 61.3117ZM112.803 74.5255C111.991 72.8077 111.515 72.1338 110.717 70.416L109.429 74.0233L103.739 78.6746L101.511 79.7317L101.614 80.5774C106.044 80.5471 110.458 80.0423 114.785 79.071C114.785 77.3532 114.785 75.5429 114.682 73.693L112.803 74.5255ZM126.128 67.76L125.021 68.9493L117.927 72.147C118.004 74.2348 118.056 76.2432 118.056 78.1725C122.356 77.0625 126.141 75.8997 129.514 74.684C129.799 72.0427 130.299 69.4305 131.008 66.8747C129.943 67.2715 128.85 67.5808 127.738 67.7997C127.202 67.861 126.661 67.8477 126.128 67.76ZM104.073 36.1263L107.575 32.334L110.331 31.6997C109.507 26.1764 108.67 21.1288 107.962 17.1646C95.9558 18.9533 84.2108 22.2552 72.9929 26.9957L73.3534 27.7753C75.3481 31.9207 77.66 35.8973 80.2673 39.6676C81.263 39.3241 82.2673 39.0069 83.2801 38.7162C86.7134 37.7825 90.1167 36.8707 93.49 35.981C96.6315 35.1353 101.614 33.4572 104.073 36.1263ZM129.386 78.4103C126 79.5863 122.24 80.6963 118.017 81.7798C118.017 83.2465 118.017 91.7165 115.687 96.5395C122.247 94.638 128.447 91.6088 134.021 87.5806C131.059 86.1139 129.514 82.3083 129.386 78.3442V78.4103ZM125.356 28.4227L124.068 31.8055L123.94 32.149L127.802 27.9206C131.755 27.1278 135.694 26.3878 139.647 25.6611L138.99 27.696C140.926 26.1009 143.25 25.0816 145.711 24.7493H146.046C146.656 22.1863 147.112 19.587 147.411 16.9664L145.402 16.5172C140.048 15.9264 134.667 15.6352 129.283 15.6451C123.258 15.6418 117.239 16.0081 111.258 16.7418C111.966 20.7059 112.777 25.5686 113.588 30.973C117.502 30.0877 121.39 29.242 125.356 28.4227ZM92.0738 84.3565C93.4643 86.1183 94.8934 87.8801 96.3611 89.642C97.7195 88.1013 98.46 86.0905 98.434 84.0129C96.8633 84.0129 95.1638 83.8808 93.387 83.7222L92.0738 84.3565ZM69.993 28.3567C68.4351 29.0438 66.8901 29.7705 65.358 30.5105C66.7485 35.5449 68.3836 40.4605 70.2248 45.257H70.302L70.8943 44.7153L71.0359 44.6096C71.5509 44.1999 72.0788 43.83 72.6195 43.46H72.7225L73.4435 42.9975L73.5594 42.9182C74.113 42.5747 74.6796 42.2575 75.2461 41.9536H75.3619L76.0958 41.5704L76.2503 41.4911L77.1001 41.0815C74.5602 37.3938 72.3086 33.5057 70.3664 29.4534L69.993 28.3567ZM98.5757 92.0601C99.3095 92.8926 100.056 93.6986 100.816 94.5178L101.061 94.7821C102.258 96.1035 103.481 97.3192 104.717 98.5612C106.623 98.3763 108.58 98.112 110.356 97.7684C110.81 97.3538 111.24 96.9126 111.644 96.447C111.679 96.3763 111.727 96.3134 111.785 96.2621C113.665 94.2932 114.592 89.272 114.824 82.4669C110.533 83.3935 106.166 83.8935 101.782 83.9601C101.825 85.4706 101.555 86.9734 100.992 88.3695C100.428 89.7656 99.5827 91.0234 98.5113 92.0601H98.5757ZM150.977 17.8385C150.809 19.9199 150.521 21.9893 150.115 24.0358C152.574 23.6394 155.033 23.2694 157.492 22.8994L154.441 35.3864L149.535 40.6719L153.707 39.3505C152.393 44.7153 151.106 50.0008 149.69 55.2863L144.359 61.0342C142.119 61.9856 138.411 63.8091 134.845 65.3419C133.997 67.9676 133.334 70.6525 132.862 73.3759C145.067 68.3414 151.325 61.9328 158.11 50.9125C160.447 40.5776 160.194 29.8036 157.376 19.596C155.256 18.9881 153.123 18.4023 150.977 17.8385ZM132.527 77.1814C132.45 84.9115 137.136 84.5811 137.896 84.4622C145.057 78.3474 150.752 70.6257 154.544 61.8931C148.866 68.7378 142.428 73.3494 132.527 77.1814Z" fill="black" fill-opacity="0.01"/>
<path d="M227.261 39.9055C212.849 41.115 198.528 43.2777 184.387 46.3802C185.353 43.7375 186.254 41.0947 187.117 38.452C200.85 35.9061 214.373 33.6642 227.686 31.7262C230.428 31.4355 230.428 28.0528 227.557 27.8546C215.195 26.8907 202.79 26.6348 190.4 27.0882C190.915 25.0929 191.417 23.124 191.893 21.0759C166.233 7.49219 144.539 0 115.402 0C86.2662 0 64.5588 7.49219 38.8989 21.0627L40.9202 29.427C43.3589 39.6754 46.8102 49.6417 51.2203 59.1711C34.246 66.5643 17.884 75.3583 2.29507 85.4664C-1.92795 88.0299 0.299432 90.5405 3.96882 88.9549C18.5606 83.4932 33.6244 78.2738 49.1603 73.2966C46.2763 79.6127 43.4523 85.9421 40.6885 92.2847C38.5512 97.2531 34.8303 104.877 41.976 108.075C42.6714 108.266 43.3826 108.39 44.1004 108.445C33.469 115.979 23.28 124.151 13.5865 132.917C9.80122 136.353 12.6337 138.123 15.7753 136.088C36.517 124.354 58.4046 112.885 81.3608 101.904C91.6615 112.05 103.087 120.92 115.402 128.332C143.277 111.154 164.186 90.9369 178.49 60.6907C195.245 54.5243 211.755 48.8688 228.021 43.7242C230.93 43.0768 230.84 39.5751 227.261 39.9055ZM177.048 59.1315L177.164 58.8804C164.225 86.8407 144.693 108.035 115.364 126.059C102.268 118.115 90.2395 108.449 79.584 97.3059C80.2922 98.0723 81.0132 98.8123 81.747 99.5655C58.4046 110.784 36.0277 122.425 14.874 134.437C28.6969 121.965 43.4927 110.678 59.1127 100.689L56.7823 101.891C52.4434 104.151 47.6281 107.599 42.6197 106.265C37.1607 103.834 40.7657 97.0152 42.4266 93.1304C45.7741 85.4048 49.2332 77.7276 52.8039 70.0989C35.826 75.4813 19.3459 81.1499 3.3637 87.1049C19.4345 76.6951 36.3253 67.6827 53.8597 60.1621L54.4262 61.3117C49.3615 51.0108 45.4484 40.155 42.7614 28.9513L41.1005 22.0934C65.782 9.05141 87.4507 1.95563 115.402 1.95563C143.354 1.95563 165.023 9.0382 189.73 22.0934C189.026 24.8418 188.305 27.5374 187.567 30.1802L187.876 29.0966C201.057 28.4988 214.26 28.7151 227.415 29.7441C213.725 31.7966 199.803 34.1443 185.649 36.787L185.958 35.7828C184.142 41.6761 182.095 47.3184 179.894 52.6964C180.383 51.5203 180.872 50.3179 181.348 49.1155C196.523 45.6214 211.916 43.2107 227.415 41.9008C210.875 47.0541 194.086 52.7977 177.048 59.1315ZM70.1209 45.2967L70.2367 45.2042H70.1595L70.1209 45.2967ZM115.402 6.80507C89.6523 6.80507 69.4127 12.9891 46.5981 24.6568C47.7912 29.6428 49.1517 34.4526 50.6795 39.0862C52.8628 45.7586 55.4868 52.2705 58.5333 58.5765C59.4918 56.9487 60.5814 55.4061 61.7907 53.9649L64.9193 50.5822C61.6917 43.3137 59.006 35.8044 56.8853 28.1188C75.6027 18.9465 95.9937 13.9263 116.729 13.3855C126.364 13.4531 135.968 14.5021 145.401 16.5172L147.41 16.9664L148.131 17.1382L148.607 17.2439C149.393 17.4421 150.191 17.6271 150.976 17.8385C153.113 18.3935 155.259 18.9969 157.414 19.6488C160.639 31.2273 160.515 43.5184 157.056 55.0258C153.598 66.5332 146.954 76.7603 137.934 84.4622C136.646 85.5193 135.359 86.55 134.071 87.5146C128.497 91.5427 122.298 94.5719 115.737 96.4735C113.96 96.9888 112.171 97.4249 110.343 97.7948C108.514 98.1648 106.609 98.4027 104.703 98.5877L106.377 100.213L110.175 99.5787C126.281 96.7818 140.653 87.5543 150.149 73.9135C159.645 60.2727 163.493 43.3282 160.851 26.7842C160.774 26.335 160.684 25.8725 160.607 25.4629V23.2826L160.542 23.0183V22.2387C160.362 21.5252 160.208 20.9173 160.04 20.3095L162.615 21.142C164.418 21.7498 166.104 22.3709 167.765 23.0183C171.988 24.6304 175.735 26.2821 178.838 27.8017C169.597 60.9562 149.579 89.8664 122.11 109.727L119.87 111.339C118.969 111.96 118.068 112.581 117.153 113.189C106.111 105.725 96.0952 96.7747 87.3734 86.5764L79.6484 90.3555C90.1299 102.051 102.177 112.159 115.428 120.377C152.598 96.8303 172.993 67.8261 184.181 24.6568C161.405 13.0023 141.165 6.80507 115.402 6.80507ZM92.0728 84.3565L93.3603 83.7222L91.1716 84.7793L92.0728 84.3565ZM108.978 34.1443C107.845 36.8663 106.699 39.5883 105.592 42.3236L108.424 41.5176C104.991 50.0801 101.622 58.6778 98.3172 67.3108C96.9525 70.8256 95.6135 74.3273 94.2745 77.8818C98.6863 75.6795 103.094 73.5344 107.497 71.4467C109.497 65.7736 111.518 60.1137 113.561 54.467C115.441 58.3254 117.299 62.1882 119.136 66.0555C121.994 64.7341 124.84 63.4127 127.698 62.1838C125.981 58.1316 124.222 54.0706 122.419 50.0008C125.587 45.0765 128.775 40.1698 131.986 35.2807L134.702 34.6332C135.385 32.5058 136.067 30.3916 136.736 28.2642C134.11 28.7575 131.492 29.264 128.883 29.7838C124.591 35.4745 120.389 41.2004 116.278 46.9616C118.218 41.6761 120.179 36.3906 122.162 31.1051C117.759 32.0829 113.355 33.074 108.978 34.1443ZM152.817 33.7479C153.513 30.973 154.182 28.1849 154.864 25.41C151.89 25.8593 148.903 26.335 145.929 26.8371C143.575 27.1045 141.372 28.1584 139.659 29.8366C138.313 31.4436 137.337 33.3402 136.801 35.3864L131.123 53.6213C130.389 56.013 129.179 60.3868 132.925 60.0696C134.199 59.7792 135.435 59.3356 136.608 58.7483C140.402 57.101 144.208 55.4669 148.028 53.846C148.998 50.0228 149.959 46.204 150.912 42.3897C148.921 43.0239 146.921 43.6758 144.912 44.3453C144.436 46.0631 143.972 47.7941 143.509 49.5119C142.105 50.0272 140.728 50.5557 139.337 51.0843C141.054 44.9179 142.809 38.7515 144.603 32.5851L148.298 31.779C148.002 32.8626 147.719 33.9461 147.423 35.0164L152.817 33.7479ZM89.3948 74.3669C90.9196 71.5727 92.2407 68.6666 93.3475 65.6723C95.871 59.3032 98.446 52.9518 101.073 46.6181C102.051 44.2396 103.763 41.2401 103.21 38.6898C102.115 35.2146 96.386 37.3684 93.8882 37.9763C90.5064 38.8572 87.1202 39.7689 83.7298 40.7115C77.9231 42.3368 72.7474 44.8871 68.6016 49.5911C66.3275 52.407 64.423 55.5167 62.9366 58.8408C58.3016 68.5308 53.8554 78.2958 49.598 88.1356C48.4779 90.6991 45.066 96.9492 48.7096 98.5612C52.7267 99.6316 57.7222 96.1696 61.2886 94.3196C65.1511 92.2979 69.0136 90.3555 72.8761 88.3338C79.4682 84.9908 85.4422 80.9077 89.3948 74.3669ZM67.1982 81.2777C71.6358 70.7331 76.2494 60.259 81.0389 49.8554C83.7169 48.9965 86.4078 48.1244 89.1244 47.2127C84.7212 57.1142 80.4896 67.0509 76.4296 77.0229C73.3139 78.4235 70.2625 79.8374 67.1982 81.2777Z" fill="black" fill-opacity="0.01"/>
</svg>
